<svg xmlns="http://www.w3.org/2000/svg" width="132" height="132"><style>.c15{fill:#ff0000}.c10{fill:#ffaaaa}.c5{fill:#aaaaff}.c2{fill:#4444ff}.c1{fill:#2222ff}.c4{fill:#8888ff}.c0{fill:#0000ff}</style><text x="4" y="10" font-size="9">PE cosine similarity</text><rect class="c15" x="10" y="12" width="14" height="14"/><rect class="c10" x="24" y="12" width="14" height="14"/><rect class="c5" x="38" y="12" width="14" height="14"/><rect class="c5" x="52" y="12" width="14" height="14"/><rect class="c2" x="66" y="12" width="14" height="14"/><rect class="c1" x="80" y="12" width="14" height="14"/><rect class="c4" x="94" y="12" width="14" height="14"/><rect class="c0" x="108" y="12" width="14" height="14"/><rect class="c10" x="10" y="26" width="14" height="14"/><rect class="c15" x="24" y="26" width="14" height="14"/><rect class="c10" x="38" y="26" width="14" height="14"/><rect class="c5" x="52" y="26" width="14" height="14"/><rect class="c5" x="66" y="26" width="14" height="14"/><rect class="c2" x="80" y="26" width="14" height="14"/><rect class="c1" x="94" y="26" width="14" height="14"/><rect class="c4" x="108" y="26" width="14" height="14"/><rect class="c5" x="10" y="40" width="14" height="14"/><rect class="c10" x="24" y="40" width="14" height="14"/><rect class="c15" x="38" y="40" width="14" height="14"/><rect class="c10" x="52" y="40" width="14" height="14"/><rect class="c5" x="66" y="40" width="14" height="14"/><rect class="c5" x="80" y="40" width="14" height="14"/><rect class="c2" x="94" y="40" width="14" height="14"/><rect class="c1" x="108" y="40" width="14" height="14"/><rect class="c5" x="10" y="54" width="14" height="14"/><rect class="c5" x="24" y="54" width="14" height="14"/><rect class="c10" x="38" y="54" width="14" height="14"/><rect class="c15" x="52" y="54" width="14" height="14"/><rect class="c10" x="66" y="54" width="14" height="14"/><rect class="c5" x="80" y="54" width="14" height="14"/><rect class="c5" x="94" y="54" width="14" height="14"/><rect class="c2" x="108" y="54" width="14" height="14"/><rect class="c2" x="10" y="68" width="14" height="14"/><rect class="c5" x="24" y="68" width="14" height="14"/><rect class="c5" x="38" y="68" width="14" height="14"/><rect class="c10" x="52" y="68" width="14" height="14"/><rect class="c15" x="66" y="68" width="14" height="14"/><rect class="c10" x="80" y="68" width="14" height="14"/><rect class="c5" x="94" y="68" width="14" height="14"/><rect class="c5" x="108" y="68" width="14" height="14"/><rect class="c1" x="10" y="82" width="14" height="14"/><rect class="c2" x="24" y="82" width="14" height="14"/><rect class="c5" x="38" y="82" width="14" height="14"/><rect class="c5" x="52" y="82" width="14" height="14"/><rect class="c10" x="66" y="82" width="14" height="14"/><rect class="c15" x="80" y="82" width="14" height="14"/><rect class="c10" x="94" y="82" width="14" height="14"/><rect class="c5" x="108" y="82" width="14" height="14"/><rect class="c4" x="10" y="96" width="14" height="14"/><rect class="c1" x="24" y="96" width="14" height="14"/><rect class="c2" x="38" y="96" width="14" height="14"/><rect class="c5" x="52" y="96" width="14" height="14"/><rect class="c5" x="66" y="96" width="14" height="14"/><rect class="c10" x="80" y="96" width="14" height="14"/><rect class="c15" x="94" y="96" width="14" height="14"/><rect class="c10" x="108" y="96" width="14" height="14"/><rect class="c0" x="10" y="110" width="14" height="14"/><rect class="c4" x="24" y="110" width="14" height="14"/><rect class="c1" x="38" y="110" width="14" height="14"/><rect class="c2" x="52" y="110" width="14" height="14"/><rect class="c5" x="66" y="110" width="14" height="14"/><rect class="c5" x="80" y="110" width="14" height="14"/><rect class="c10" x="94" y="110" width="14" height="14"/><rect class="c15" x="108" y="110" width="14" height="14"/></svg>